<svg xmlns="http://www.w3.org/2000/svg" xmlns:xlink="http://www.w3.org/1999/xlink" width="74.319" height="83.556" viewBox="0 0 74.319 83.556">
  <defs>
    <linearGradient id="linear-gradient" x1="0.5" x2="0.5" y2="1" gradientUnits="objectBoundingBox">
      <stop offset="0" stop-color="#6b7c97"/>
      <stop offset="1" stop-color="#3c4d67"/>
    </linearGradient>
    <linearGradient id="linear-gradient-2" x1="0.5" x2="0.5" y2="1" gradientUnits="objectBoundingBox">
      <stop offset="0" stop-color="#3c4d67"/>
      <stop offset="1" stop-color="#6b7c97"/>
    </linearGradient>
    <linearGradient id="linear-gradient-3" x1="0.5" x2="0.5" y2="1" gradientUnits="objectBoundingBox">
      <stop offset="0" stop-color="#57a0ad"/>
      <stop offset="1" stop-color="#467a85"/>
    </linearGradient>
    <linearGradient id="linear-gradient-4" x1="0.5" x2="0.5" y2="1" gradientUnits="objectBoundingBox">
      <stop offset="0" stop-color="#467a85"/>
      <stop offset="1" stop-color="#6aaebb"/>
    </linearGradient>
  </defs>
  <g id="logo" transform="translate(-314.661 -14.715)">
    <path id="Path_241" data-name="Path 241" d="M-31.333-169.311a7.422,7.422,0,0,0-3.381,5.832v35.2a7.467,7.467,0,0,0,3.373,5.847l30.414,17.6a7.441,7.441,0,0,0,6.745,0l30.416-17.6a7.466,7.466,0,0,0,3.372-5.847v-35.2a7.45,7.45,0,0,0-3.376-5.842L5.943-186.774a7.5,7.5,0,0,0-6.757-.01Z" transform="translate(349.375 202.298)" fill="#2c3b52"/>
    <g id="Group_375" data-name="Group 375" transform="translate(1289.431 55.848)">
      <g id="Group_374" data-name="Group 374" transform="translate(-969.431 -35.848)">
        <path id="Subtraction_3" data-name="Subtraction 3" d="M-937.431,36.153a6.78,6.78,0,0,1-1.536-.176,5,5,0,0,1-1.351-.52l-26.207-15.162a4.988,4.988,0,0,1-1.131-.918,6.979,6.979,0,0,1-1.546-2.681,4.978,4.978,0,0,1-.228-1.439V-15.078a4.972,4.972,0,0,1,.229-1.438,6.939,6.939,0,0,1,1.551-2.674,4.988,4.988,0,0,1,1.134-.913l26.3-15.056a5.908,5.908,0,0,1,2.809-.688v72h-.02Z" transform="translate(969.431 35.847)" fill="url(#linear-gradient)"/>
        <path id="Subtraction_4" data-name="Subtraction 4" d="M-899.921,36.152h-.1v-72l.162,0h.029a6.847,6.847,0,0,1,1.547.176,5.01,5.01,0,0,1,1.359.521l26.1,15.039a5,5,0,0,1,1.133.916,6.969,6.969,0,0,1,1.548,2.679,4.989,4.989,0,0,1,.229,1.438V15.255a5.009,5.009,0,0,1-.228,1.439,6.979,6.979,0,0,1-1.547,2.681,4.989,4.989,0,0,1-1.131.919l-26.209,15.162a4.982,4.982,0,0,1-1.351.52A6.784,6.784,0,0,1-899.921,36.152Z" transform="translate(932.043 35.848)" fill="url(#linear-gradient-2)"/>
      </g>
      <path id="Path_227" data-name="Path 227" d="M-944.143,3.14v23.5l20.311,11.751,20.313-11.751V3.14L-923.765-8.527Z" transform="translate(-13.622 -14.717)" fill="#fff"/>
      <path id="Subtraction_1" data-name="Subtraction 1" d="M-900.125,39.489h0l-.08-.047v-6.43l.024.014,9.048-5.234V17.324l-9.018-5.2-.054.031V5.738l.129-.074,14.6,8.411V31.017l-14.644,8.471Z" transform="translate(-37.29 -22.361)" fill="url(#linear-gradient-3)"/>
      <path id="Subtraction_2" data-name="Subtraction 2" d="M-917.31,39.519h0l-14.643-8.471V14.105l14.646-8.385v6.454l-.029-.017-9.077,5.2V27.822l9.047,5.234.059-.034v6.5l0,0Z" transform="translate(-20.188 -22.391)" fill="url(#linear-gradient-4)"/>
    </g>
  </g>
</svg>
